<?xml version="1.0" standalone="no"?>
<!DOCTYPE svg PUBLIC "-//W3C//DTD SVG 20010904//EN"
 "http://www.w3.org/TR/2001/REC-SVG-20010904/DTD/svg10.dtd">
<svg version="1.0" xmlns="http://www.w3.org/2000/svg"
 width="606.000000pt" height="606.000000pt" viewBox="0 0 606.000000 606.000000"
 preserveAspectRatio="xMidYMid meet">
<metadata>
Created by potrace 1.11, written by Peter Selinger 2001-2013
</metadata>
<g transform="translate(0.000000,606.000000) scale(0.100000,-0.100000)"
fill="#000000" stroke="none">
<path d="M2 5998 l2 -63 3 57 4 58 877 3 877 2 -882 3 -883 2 2 -62z"/>
<path d="M4773 6053 c9 -2 23 -2 30 0 6 3 -1 5 -18 5 -16 0 -22 -2 -12 -5z"/>
<path d="M5438 6053 c117 -2 306 -2 420 0 114 1 18 2 -213 2 -231 0 -324 -1
-207 -2z"/>
<path d="M5 4945 c0 -280 1 -397 2 -258 2 138 2 368 0 510 -1 142 -2 29 -2
-252z"/>
<path d="M2908 4982 c-34 -2 -48 -7 -48 -18 0 -16 3 -16 -78 -20 -34 -1 -78
-8 -98 -14 -19 -7 -50 -9 -69 -6 -19 4 -36 2 -40 -4 -3 -5 -15 -10 -25 -10
-10 0 -26 -7 -34 -16 -9 -8 -16 -12 -16 -9 0 4 -23 -9 -50 -29 -28 -20 -52
-36 -55 -36 -3 0 -18 -8 -33 -19 -54 -36 -87 -55 -94 -53 -5 1 -8 -2 -8 -7 0
-5 -9 -12 -19 -16 -21 -6 -141 -116 -141 -129 0 -8 -68 -75 -72 -71 -2 1 -12
-7 -23 -18 -11 -11 -14 -17 -7 -13 22 13 13 -13 -13 -36 -13 -11 -22 -24 -20
-28 3 -4 -2 -13 -10 -20 -8 -7 -15 -18 -15 -24 0 -7 -11 -22 -26 -35 -17 -15
-23 -28 -19 -41 3 -10 1 -21 -5 -25 -5 -3 -10 -28 -10 -55 0 -27 -4 -51 -9
-54 -5 -3 -12 -22 -15 -41 -4 -19 -11 -35 -16 -35 -6 0 -9 -3 -8 -7 1 -5 -4
-21 -11 -38 -14 -32 -24 -107 -23 -165 2 -102 10 -181 20 -193 14 -17 36 -191
27 -224 -4 -18 1 -37 19 -64 28 -41 33 -69 15 -69 -21 0 13 -317 39 -366 5
-11 15 -43 22 -71 6 -29 36 -92 65 -141 39 -63 56 -105 65 -151 8 -44 38 -116
98 -237 47 -95 90 -171 94 -168 7 5 38 -58 38 -77 0 -5 -9 -18 -19 -28 -19
-19 -21 -18 -131 5 -62 14 -120 22 -129 19 -9 -3 -45 -37 -80 -76 l-64 -70 7
-54 c5 -47 4 -54 -13 -60 -24 -7 -61 -39 -61 -52 0 -11 -67 -75 -135 -130
l-39 -33 18 -67 18 -68 -38 -30 c-20 -16 -89 -73 -153 -125 -64 -53 -156 -121
-206 -152 -102 -64 -157 -117 -174 -167 -14 -44 -13 -147 3 -191 l13 -35 -101
-50 c-125 -61 -465 -279 -526 -337 -37 -34 -58 -70 -104 -173 -52 -115 -106
-243 -106 -252 0 -2 1301 -3 2890 -3 l2890 0 0 307 c0 168 -3 303 -7 300 -3
-4 -15 1 -26 10 -11 10 -17 12 -13 5 4 -7 -28 21 -71 63 -43 41 -90 81 -105
87 -15 7 -25 16 -22 20 6 10 -31 29 -64 33 -15 1 -31 3 -36 4 -5 0 -6 4 -3 8
9 9 -49 33 -79 33 -13 0 -32 4 -42 10 -9 5 -53 26 -97 46 -44 20 -83 41 -87
48 -4 6 -8 7 -8 3 0 -5 -12 -2 -27 6 -49 25 -103 47 -118 47 -7 0 -20 6 -27
14 -8 8 -57 30 -109 49 -52 20 -123 49 -159 66 -36 17 -72 31 -81 31 -8 0 -19
4 -25 9 -10 10 -169 74 -244 97 -75 24 -120 79 -111 137 1 9 -3 17 -9 17 -6 0
-8 5 -5 10 3 6 2 10 -3 10 -5 0 -9 6 -10 13 -4 60 -99 282 -153 359 -11 14
-19 34 -19 43 0 22 40 79 73 105 15 12 27 30 27 39 0 23 -37 71 -55 71 -7 0
-15 10 -18 21 -4 14 -11 20 -21 16 -24 -9 -56 39 -49 74 5 24 1 30 -21 39 -15
5 -41 10 -58 10 -24 0 -28 3 -19 14 6 7 13 26 15 42 2 16 5 34 6 39 14 59 -19
90 -120 114 -94 23 -105 20 -159 -38 l-35 -36 -8 35 c-14 64 -7 202 12 245 10
22 23 54 30 72 7 19 21 34 35 37 37 9 204 229 218 286 3 14 13 50 22 80 26 87
30 195 11 268 -9 35 -13 69 -9 74 3 7 1 8 -5 4 -7 -4 -12 -1 -12 6 0 7 -11 30
-25 50 -27 40 -26 31 -26 318 1 189 -4 211 -53 273 -20 26 -37 37 -56 37 -22
0 -29 7 -43 48 -9 26 -14 56 -11 67 4 16 -12 41 -65 100 l-71 79 0 70 0 71
-122 117 c-67 64 -125 115 -130 112 -5 -3 -28 10 -51 29 -23 19 -69 49 -102
68 -57 33 -65 34 -175 36 -63 2 -151 4 -195 5 -44 2 -101 2 -127 0z"/>
<path d="M4305 3520 c3 -5 8 -10 11 -10 2 0 4 5 4 10 0 6 -5 10 -11 10 -5 0
-7 -4 -4 -10z"/>
<path d="M4 760 c0 -96 2 -136 3 -87 2 48 2 126 0 175 -1 48 -3 8 -3 -88z"/>
<path d="M18 3 c12 -2 30 -2 40 0 9 3 -1 5 -23 4 -22 0 -30 -2 -17 -4z"/>
<path d="M113 3 c15 -2 39 -2 55 0 15 2 2 4 -28 4 -30 0 -43 -2 -27 -4z"/>
</g>
</svg>
